<?xml version="1.0" encoding="UTF-8" standalone="no"?>
<svg
   viewBox="0 0 117.905 79.655998"
   version="1.1"
   id="svg2368"
   sodipodi:docname="wew (1).svg"
   inkscape:version="1.2 (dc2aedaf03, 2022-05-15)"
   width="117.905"
   height="79.655998"
   xmlns:inkscape="http://www.inkscape.org/namespaces/inkscape"
   xmlns:sodipodi="http://sodipodi.sourceforge.net/DTD/sodipodi-0.dtd"
   xmlns="http://www.w3.org/2000/svg"
   xmlns:svg="http://www.w3.org/2000/svg">
  <defs
     id="defs2372" />
  <sodipodi:namedview
     id="namedview2370"
     pagecolor="#505050"
     bordercolor="#ffffff"
     borderopacity="1"
     inkscape:pageshadow="0"
     inkscape:pageopacity="0"
     inkscape:pagecheckerboard="1"
     showgrid="false"
     inkscape:zoom="5.45625"
     inkscape:cx="57.548683"
     inkscape:cy="41.970218"
     inkscape:window-width="1920"
     inkscape:window-height="1129"
     inkscape:window-x="-8"
     inkscape:window-y="-8"
     inkscape:window-maximized="1"
     inkscape:current-layer="svg2368"
     inkscape:showpageshadow="0"
     inkscape:deskcolor="#505050" />
  <g
     id="g245"
     transform="translate(-21.002,-39)">
    <path
       d="m 23.639,115 h -2.637 v -12.797 h 2.637 z m 5.767,0 h -2.549 v -13.5 h 2.549 z m 11.568,0 h -8.772 v -1.74 l 4.14,-4.412 q 0.853,-0.932 1.257,-1.626 0.413,-0.695 0.413,-1.319 0,-0.852 -0.43,-1.336 -0.431,-0.492 -1.231,-0.492 -0.862,0 -1.362,0.598 -0.493,0.589 -0.493,1.556 h -2.549 q 0,-1.17 0.554,-2.136 0.563,-0.967 1.582,-1.512 1.02,-0.554 2.312,-0.554 1.977,0 3.067,0.95 1.099,0.949 1.099,2.68 0,0.95 -0.492,1.934 -0.493,0.984 -1.688,2.294 l -2.91,3.067 h 5.503 z m 12.684,-4.263 q -0.15,2.066 -1.53,3.252 -1.37,1.187 -3.62,1.187 -2.461,0 -3.876,-1.653 -1.407,-1.66 -1.407,-4.552 v -0.783 q 0,-1.845 0.65,-3.251 0.651,-1.407 1.855,-2.154 1.213,-0.756 2.813,-0.756 2.214,0 3.568,1.187 1.354,1.186 1.564,3.33 H 51.04 q -0.097,-1.238 -0.695,-1.792 -0.588,-0.563 -1.801,-0.563 -1.319,0 -1.978,0.95 -0.65,0.94 -0.668,2.926 v 0.967 q 0,2.074 0.624,3.032 0.633,0.958 1.986,0.958 1.222,0 1.82,-0.553 0.606,-0.563 0.694,-1.732 z m 10.935,-0.404 q 0,2.197 -1.002,3.524 -0.993,1.319 -2.69,1.319 -1.44,0 -2.329,-1.002 v 4.482 h -2.54 V 105.49 h 2.356 l 0.088,0.932 q 0.923,-1.108 2.408,-1.108 1.758,0 2.733,1.301 0.976,1.301 0.976,3.586 z m -2.54,-0.185 q 0,-1.327 -0.475,-2.047 -0.466,-0.721 -1.362,-0.721 -1.195,0 -1.644,0.914 v 3.894 q 0.466,0.94 1.662,0.94 1.819,0 1.819,-2.98 z m 13.484,0.185 q 0,2.197 -1.002,3.524 -0.993,1.319 -2.69,1.319 -1.441,0 -2.329,-1.002 v 4.482 h -2.54 V 105.49 h 2.356 l 0.087,0.932 q 0.923,-1.108 2.409,-1.108 1.757,0 2.733,1.301 0.976,1.301 0.976,3.586 z m -2.54,-0.185 q 0,-1.327 -0.475,-2.047 -0.466,-0.721 -1.362,-0.721 -1.196,0 -1.644,0.914 v 3.894 q 0.466,0.94 1.661,0.94 1.82,0 1.82,-2.98 z M 80.89,115 h -2.636 v -12.797 h 2.637 z m 5.425,-9.51 0.079,1.099 q 1.02,-1.275 2.733,-1.275 1.512,0 2.25,0.888 0.739,0.888 0.756,2.654 V 115 h -2.54 v -6.082 q 0,-0.809 -0.351,-1.169 -0.352,-0.37 -1.17,-0.37 -1.072,0 -1.608,0.915 V 115 h -2.54 v -9.51 z m 11.595,-2.338 v 2.338 h 1.625 v 1.864 h -1.626 v 4.746 q 0,0.527 0.202,0.755 0.202,0.229 0.774,0.229 0.422,0 0.747,-0.062 v 1.925 q -0.747,0.229 -1.538,0.229 -2.672,0 -2.725,-2.698 v -5.124 H 93.98 v -1.864 h 1.389 v -2.338 z m 8.227,12.024 q -2.092,0 -3.41,-1.283 -1.31,-1.284 -1.31,-3.42 v -0.245 q 0,-1.433 0.554,-2.558 0.554,-1.134 1.564,-1.74 1.02,-0.616 2.32,-0.616 1.952,0 3.068,1.23 1.125,1.231 1.125,3.49 v 1.037 h -6.056 q 0.124,0.932 0.739,1.494 0.624,0.563 1.573,0.563 1.468,0 2.294,-1.064 l 1.248,1.398 q -0.571,0.809 -1.547,1.266 -0.975,0.448 -2.162,0.448 z m -0.29,-7.805 q -0.756,0 -1.23,0.51 -0.466,0.51 -0.598,1.459 h 3.533 v -0.202 q -0.018,-0.844 -0.457,-1.301 -0.44,-0.466 -1.248,-0.466 z m 11.796,0.501 q -0.518,-0.07 -0.914,-0.07 -1.441,0 -1.89,0.975 V 115 h -2.54 v -9.51 h 2.4 l 0.07,1.134 q 0.765,-1.31 2.118,-1.31 0.422,0 0.791,0.115 z m 1.32,2.285 q 0,-1.415 0.545,-2.522 0.545,-1.108 1.564,-1.714 1.029,-0.607 2.382,-0.607 1.925,0 3.138,1.178 1.222,1.178 1.362,3.2 l 0.018,0.65 q 0,2.188 -1.222,3.515 -1.221,1.319 -3.278,1.319 -2.057,0 -3.287,-1.319 -1.222,-1.318 -1.222,-3.586 z m 2.54,0.185 q 0,1.353 0.51,2.074 0.51,0.712 1.459,0.712 0.923,0 1.441,-0.703 0.519,-0.712 0.519,-2.268 0,-1.327 -0.519,-2.056 -0.518,-0.73 -1.459,-0.73 -0.931,0 -1.441,0.73 -0.51,0.72 -0.51,2.24 z m 17.404,-0.009 q 0,2.197 -1.002,3.524 -0.993,1.319 -2.69,1.319 -1.44,0 -2.329,-1.002 v 4.482 h -2.54 V 105.49 h 2.356 l 0.088,0.932 q 0.923,-1.108 2.408,-1.108 1.758,0 2.733,1.301 0.976,1.301 0.976,3.586 z m -2.54,-0.185 q 0,-1.327 -0.475,-2.047 -0.466,-0.721 -1.362,-0.721 -1.195,0 -1.644,0.914 v 3.894 q 0.466,0.94 1.661,0.94 1.82,0 1.82,-2.98 z"
       aria-label="Il2CppInterop"
       style="font-weight:700;font-size:18px;font-family:Roboto;letter-spacing:0.81;fill:#5dacbd;fill-rule:evenodd;stroke:none;stroke-width:1"
       id="path2360" />
    <path
       d="m 59.483,53.155 v 23.69 L 80,88.691 100.517,76.845 V 53.155 L 80,41.309 Z M 80,39 102.517,52 V 78 L 80,91 57.483,78 V 52 Z"
       fill="#5dacbd"
       style="stroke:none;stroke-width:1"
       id="path2362" />
    <path
       d="m 79.91024,53.96 c -0.0528,0.01104 -0.1032,0.03168 -0.15024,0.06 l -3.84,2.13024 A 0.60768,0.60768 0 0 0 75.87488,56.18 L 75.86,56.19488 75.84512,56.21024 a 0.22656,0.22656 0 0 0 -0.03024,0.02976 0.45792,0.45792 0 0 0 -0.06,0.07488 0.22368,0.22368 0 0 0 -0.01488,0.03024 0.22368,0.22368 0 0 0 -0.01488,0.02976 l -0.01536,0.01536 v 0.0144 a 0.22368,0.22368 0 0 0 -0.0144,0.03024 V 56.48 c -0.0058,0.0192 -0.01152,0.03936 -0.01536,0.06 a 0.36192,0.36192 0 0 0 0,0.09024 v 1.5744 L 71.12,60.74 a 0.47952,0.47952 0 0 0 -0.24,0.42 v 4.14 l -1.62,0.9 -0.06,0.03024 A 0.60768,0.60768 0 0 0 69.15488,66.26 L 69.14,66.27488 69.12512,66.29024 a 0.22656,0.22656 0 0 0 -0.03024,0.02976 0.22656,0.22656 0 0 0 -0.06,0.07488 0.22368,0.22368 0 0 0 -0.01488,0.03024 0.22368,0.22368 0 0 0 -0.01488,0.02976 l -0.01488,0.01536 v 0.0144 a 0.22368,0.22368 0 0 0 -0.01536,0.03024 V 66.56 c -0.0053,0.0192 -0.01104,0.03936 -0.01488,0.06 a 0.36144,0.36144 0 0 0 0,0.09024 v 4.2144 a 0.47952,0.47952 0 0 0 0.24,0.42048 l 3.81024,2.11488 0.02976,0.01488 0.01488,0.01536 h 0.03024 L 73.1,73.50464 c 0.0096,0.0058 0.02064,0.01152 0.03024,0.01536 h 0.04464 l 0.01488,0.01488 H 73.34 a 0.5232,0.5232 0 0 0 0.12,-0.02976 h 0.01488 l 0.01488,-0.01536 A 0.2232,0.2232 0 0 0 73.52,73.47536 l 0.04512,-0.03024 a 0.2232,0.2232 0 0 0 0.02976,-0.01536 L 74.38976,72.99488 79.76,75.98 c 0.14832,0.0864 0.33168,0.0864 0.48,0 l 5.37024,-2.98512 0.84,0.46512 c 0.0144,0.01104 0.02976,0.02064 0.04464,0.03024 h 0.03024 l 0.01488,0.0144 c 0.0096,0.0058 0.02064,0.01152 0.03024,0.01536 h 0.04464 l 0.01536,0.01488 H 86.78 a 0.5232,0.5232 0 0 0 0.12,-0.02976 h 0.01488 l 0.01536,-0.01536 A 0.2232,0.2232 0 0 0 86.96,73.47536 l 0.04512,-0.03024 a 0.2232,0.2232 0 0 0 0.02976,-0.01536 L 90.8,71.3456 a 0.47952,0.47952 0 0 0 0.24,-0.42 v -4.02 A 0.47616,0.47616 0 0 0 91.08704,66.36752 0.4776,0.4776 0 0 0 90.60512,66.1256 L 89.12,65.3 v -4.14 a 0.47952,0.47952 0 0 0 -0.24,-0.42 l -4.56,-2.53488 v -1.38 a 0.47616,0.47616 0 0 0 0.04704,-0.53808 0.4776,0.4776 0 0 0 -0.48192,-0.24192 L 80.24,54.02 A 0.48576,0.48576 0 0 0 79.95488,53.96 Z M 80,54.99488 82.85024,56.57024 80,58.1144 77.14976,56.56928 Z m -3.36,2.38512 2.88,1.56 v 3.21024 L 76.64,60.56 v -1.93488 a 0.492,0.492 0 0 0 0,-0.28512 z m 6.72,0 v 0.96 a 0.4728,0.4728 0 0 0 0,0.27024 V 60.56 l -2.88,1.59024 V 58.94 Z m -7.68,1.93488 v 1.53024 a 0.47952,0.47952 0 0 0 0.24,0.42 l 3.84,2.12976 0.01488,0.01536 h 0.03024 l 0.01488,0.0144 c 0.0096,0.0058 0.02064,0.01152 0.03024,0.01536 h 0.04464 l 0.01536,0.01488 H 80.06 a 0.5232,0.5232 0 0 0 0.12,-0.02976 h 0.01488 l 0.01536,-0.01536 A 0.2232,0.2232 0 0 0 80.24,63.39536 l 0.04512,-0.03024 a 0.2232,0.2232 0 0 0 0.02976,-0.01536 L 84.08,61.2656 a 0.47952,0.47952 0 0 0 0.24,-0.42 v -1.53024 l 3.84,2.13024 V 64.76 l -1.2,-0.66 a 0.48576,0.48576 0 0 0 -0.28512,-0.06 h -0.04464 c -0.0528,0.01104 -0.1032,0.03168 -0.15024,0.06 l -3.84,2.13024 a 0.2232,0.2232 0 0 0 -0.03024,0.0144 0.22656,0.22656 0 0 0 -0.02976,0.03024 l -0.01488,0.01536 a 0.47232,0.47232 0 0 0 -0.12,0.16512 l -0.01488,0.0144 v 0.01536 A 0.22368,0.22368 0 0 0 82.41488,66.51488 0.4896,0.4896 0 0 0 82.4,66.62 v 4.30512 a 0.47952,0.47952 0 0 0 0.24,0.42 L 84.62,72.44 80,75.00512 75.38,72.44 77.36,71.34512 a 0.47952,0.47952 0 0 0 0.24,-0.42 v -4.02 a 0.47616,0.47616 0 0 0 0.04704,-0.53808 0.4776,0.4776 0 0 0 -0.48192,-0.24192 L 73.52,64.1 A 0.48576,0.48576 0 0 0 73.23488,64.04 H 73.18976 A 0.4848,0.4848 0 0 0 73.04,64.1 l -1.2,0.66 v -3.31488 z m -2.4,5.76 2.85024,1.57536 -2.85024,1.54416 -2.85024,-1.54464 1.08,-0.6 L 71.6,66.00464 a 0.2232,0.2232 0 0 0 0.03024,-0.01536 l 0.0144,-0.0144 A 0.22368,0.22368 0 0 0 71.67536,65.96 Z m 13.44,0 1.65024,0.91536 c 0.02784,0.01872 0.0576,0.0336 0.08976,0.04464 L 89.57024,66.65024 86.72,68.1944 83.86976,66.64976 Z M 69.92,67.46 72.8,69.02 v 3.21024 L 69.92,70.64 Z m 6.72,0 v 3.18 l -2.43024,1.35024 h -0.0144 a 0.2232,0.2232 0 0 0 -0.03024,0.0144 0.40416,0.40416 0 0 0 -0.09024,0.04512 A 0.22656,0.22656 0 0 0 74.04512,72.08 L 73.76,72.23024 V 69.02 Z m 6.72,0 2.88,1.56 v 3.21024 L 85.90976,72.04976 85.89536,72.03536 85.86512,72.02 A 0.4224,0.4224 0 0 0 85.82,72.00512 L 83.36,70.64 Z m 6.72,0 v 3.18 L 87.2,72.23024 V 69.02 Z"
       id="path2364"
       style="fill:#5dacbd;fill-rule:evenodd;stroke:none;stroke-width:0.48" />
  </g>
</svg>
