<?xml version="1.0" encoding="UTF-8" standalone="no"?>
<svg
   viewBox="0 0 52.000001 52"
   version="1.1"
   id="svg2368"
   sodipodi:docname="logo_icon.svg"
   inkscape:version="1.2 (dc2aedaf03, 2022-05-15)"
   width="52"
   height="52"
   xmlns:inkscape="http://www.inkscape.org/namespaces/inkscape"
   xmlns:sodipodi="http://sodipodi.sourceforge.net/DTD/sodipodi-0.dtd"
   xmlns="http://www.w3.org/2000/svg"
   xmlns:svg="http://www.w3.org/2000/svg">
  <defs
     id="defs2372" />
  <sodipodi:namedview
     id="namedview2370"
     pagecolor="#505050"
     bordercolor="#ffffff"
     borderopacity="1"
     inkscape:pageshadow="0"
     inkscape:pageopacity="0"
     inkscape:pagecheckerboard="1"
     showgrid="false"
     inkscape:zoom="5.45625"
     inkscape:cx="-5.5899198"
     inkscape:cy="41.970218"
     inkscape:window-width="1920"
     inkscape:window-height="1129"
     inkscape:window-x="-8"
     inkscape:window-y="-8"
     inkscape:window-maximized="1"
     inkscape:current-layer="svg2368"
     inkscape:showpageshadow="0"
     inkscape:deskcolor="#505050" />
  <g
     id="g259"
     transform="translate(-32.998)">
    <path
       d="m 38.481,14.155 v 23.69 L 58.998,49.691 79.515,37.845 V 14.155 L 58.998,2.309 Z M 58.998,0 81.515,13 V 39 L 58.998,52 36.481,39 V 13 Z"
       fill="#5dacbd"
       style="stroke:none;stroke-width:1"
       id="path2362" />
    <path
       d="m 58.90824,14.96 c -0.0528,0.01104 -0.1032,0.03168 -0.15024,0.06 l -3.84,2.13024 A 0.60768,0.60768 0 0 0 54.87288,17.18 l -0.01488,0.01488 -0.01488,0.01536 a 0.22656,0.22656 0 0 0 -0.03024,0.02976 0.45792,0.45792 0 0 0 -0.06,0.07488 0.22368,0.22368 0 0 0 -0.01488,0.03024 0.22368,0.22368 0 0 0 -0.01488,0.02976 l -0.01536,0.01536 v 0.0144 a 0.22368,0.22368 0 0 0 -0.0144,0.03024 V 17.48 c -0.0058,0.0192 -0.01152,0.03936 -0.01536,0.06 a 0.36192,0.36192 0 0 0 0,0.09024 v 1.5744 L 50.118,21.74 a 0.47952,0.47952 0 0 0 -0.24,0.42 v 4.14 l -1.62,0.9 -0.06,0.03024 A 0.60768,0.60768 0 0 0 48.15288,27.26 l -0.01488,0.01488 -0.01488,0.01536 a 0.22656,0.22656 0 0 0 -0.03024,0.02976 0.22656,0.22656 0 0 0 -0.06,0.07488 0.22368,0.22368 0 0 0 -0.01488,0.03024 0.22368,0.22368 0 0 0 -0.01488,0.02976 l -0.01488,0.01536 v 0.0144 a 0.22368,0.22368 0 0 0 -0.01536,0.03024 V 27.56 c -0.0053,0.0192 -0.01104,0.03936 -0.01488,0.06 a 0.36144,0.36144 0 0 0 0,0.09024 v 4.2144 a 0.47952,0.47952 0 0 0 0.24,0.42048 l 3.81024,2.11488 0.02976,0.01488 0.01488,0.01536 h 0.03024 l 0.01488,0.0144 c 0.0096,0.0058 0.02064,0.01152 0.03024,0.01536 h 0.04464 l 0.01488,0.01488 H 52.338 a 0.5232,0.5232 0 0 0 0.12,-0.02976 h 0.01488 l 0.01488,-0.01536 a 0.2232,0.2232 0 0 0 0.03024,-0.0144 l 0.04512,-0.03024 a 0.2232,0.2232 0 0 0 0.02976,-0.01536 L 53.38776,33.99488 58.758,36.98 c 0.14832,0.0864 0.33168,0.0864 0.48,0 l 5.37024,-2.98512 0.84,0.46512 c 0.0144,0.01104 0.02976,0.02064 0.04464,0.03024 h 0.03024 l 0.01488,0.0144 c 0.0096,0.0058 0.02064,0.01152 0.03024,0.01536 h 0.04464 l 0.01536,0.01488 H 65.778 a 0.5232,0.5232 0 0 0 0.12,-0.02976 h 0.01488 l 0.01536,-0.01536 a 0.2232,0.2232 0 0 0 0.02976,-0.0144 l 0.04512,-0.03024 a 0.2232,0.2232 0 0 0 0.02976,-0.01536 L 69.798,32.3456 a 0.47952,0.47952 0 0 0 0.24,-0.42 v -4.02 A 0.47616,0.47616 0 0 0 70.08504,27.36752 0.4776,0.4776 0 0 0 69.60312,27.1256 L 68.118,26.3 v -4.14 a 0.47952,0.47952 0 0 0 -0.24,-0.42 l -4.56,-2.53488 v -1.38 a 0.47616,0.47616 0 0 0 0.04704,-0.53808 0.4776,0.4776 0 0 0 -0.48192,-0.24192 L 59.238,15.02 a 0.48576,0.48576 0 0 0 -0.28512,-0.06 z m 0.08976,1.03488 2.85024,1.57536 -2.85024,1.54416 -2.85024,-1.54512 z m -3.36,2.38512 2.88,1.56 v 3.21024 L 55.638,21.56 v -1.93488 a 0.492,0.492 0 0 0 0,-0.28512 z m 6.72,0 v 0.96 a 0.4728,0.4728 0 0 0 0,0.27024 V 21.56 l -2.88,1.59024 V 19.94 Z m -7.68,1.93488 v 1.53024 a 0.47952,0.47952 0 0 0 0.24,0.42 l 3.84,2.12976 0.01488,0.01536 h 0.03024 l 0.01488,0.0144 c 0.0096,0.0058 0.02064,0.01152 0.03024,0.01536 h 0.04464 l 0.01536,0.01488 H 59.058 a 0.5232,0.5232 0 0 0 0.12,-0.02976 h 0.01488 l 0.01536,-0.01536 a 0.2232,0.2232 0 0 0 0.02976,-0.0144 l 0.04512,-0.03024 a 0.2232,0.2232 0 0 0 0.02976,-0.01536 L 63.078,22.2656 a 0.47952,0.47952 0 0 0 0.24,-0.42 v -1.53024 l 3.84,2.13024 V 25.76 l -1.2,-0.66 a 0.48576,0.48576 0 0 0 -0.28512,-0.06 h -0.04464 c -0.0528,0.01104 -0.1032,0.03168 -0.15024,0.06 l -3.84,2.13024 a 0.2232,0.2232 0 0 0 -0.03024,0.0144 0.22656,0.22656 0 0 0 -0.02976,0.03024 l -0.01488,0.01536 a 0.47232,0.47232 0 0 0 -0.12,0.16512 l -0.01488,0.0144 v 0.01536 A 0.22368,0.22368 0 0 0 61.41288,27.51488 0.4896,0.4896 0 0 0 61.398,27.62 v 4.30512 a 0.47952,0.47952 0 0 0 0.24,0.42 l 1.98,1.09488 -4.62,2.56512 -4.62,-2.56512 1.98,-1.09488 a 0.47952,0.47952 0 0 0 0.24,-0.42 v -4.02 a 0.47616,0.47616 0 0 0 0.04704,-0.53808 0.4776,0.4776 0 0 0 -0.48192,-0.24192 L 52.518,25.1 A 0.48576,0.48576 0 0 0 52.23288,25.04 H 52.18776 A 0.4848,0.4848 0 0 0 52.038,25.1 l -1.2,0.66 v -3.31488 z m -2.4,5.76 2.85024,1.57536 -2.85024,1.54416 -2.85024,-1.54464 1.08,-0.6 0.09024,-0.04512 a 0.2232,0.2232 0 0 0 0.03024,-0.01536 l 0.0144,-0.0144 A 0.22368,0.22368 0 0 0 50.67336,26.96 Z m 13.44,0 1.65024,0.91536 c 0.02784,0.01872 0.0576,0.0336 0.08976,0.04464 l 1.11024,0.61536 -2.85024,1.54416 -2.85024,-1.54464 z m -16.8,2.38512 2.88,1.56 v 3.21024 L 48.918,31.64 Z m 6.72,0 v 3.18 l -2.43024,1.35024 h -0.0144 a 0.2232,0.2232 0 0 0 -0.03024,0.0144 0.40416,0.40416 0 0 0 -0.09024,0.04512 A 0.22656,0.22656 0 0 0 53.04312,33.08 L 52.758,33.23024 V 30.02 Z m 6.72,0 2.88,1.56 v 3.21024 L 64.90776,33.04976 64.89336,33.03536 64.86312,33.02 A 0.4224,0.4224 0 0 0 64.818,33.00512 L 62.358,31.64 Z m 6.72,0 v 3.18 l -2.88,1.59024 V 30.02 Z"
       id="path2364"
       style="fill:#5dacbd;fill-rule:evenodd;stroke:none;stroke-width:0.48" />
  </g>
</svg>
